<?xml version="1.0" encoding="UTF-8" standalone="no"?>
<!DOCTYPE svg PUBLIC "-//W3C//DTD SVG 1.1//EN" "http://www.w3.org/Graphics/SVG/1.1/DTD/svg11.dtd">
<svg width="100%" height="100%" viewBox="0 0 3000 3000" version="1.1" xmlns="http://www.w3.org/2000/svg" xmlns:xlink="http://www.w3.org/1999/xlink" xml:space="preserve" xmlns:serif="http://www.serif.com/" style="fill-rule:evenodd;clip-rule:evenodd;stroke-linecap:square;stroke-miterlimit:1;">
    <g id="Structure">
        <g transform="matrix(1.224476,0,0,1.130097,-857.116966,-827.049515)">
            <path d="M778,1564.6L1500,819L3072,1564.6M778,1893.2L1500,1334L3072,1893.2M778,2221.8L1500,1849L3072,2221.8M778,2550.4L1500,2364L3072,2550.4M778,2879L3072,2879" style="fill:rgb(235,235,235);fill-opacity:0;"/>
            <path d="M777.827,1572.419L770.784,1564.412L796.975,1537.364L804.018,1545.371L777.827,1572.419ZM819.191,1529.703L812.148,1521.696L857.142,1475.231L864.185,1483.238L819.191,1529.703ZM879.358,1467.569L872.315,1459.562L917.308,1413.098L924.351,1421.105L879.358,1467.569ZM939.525,1405.436L932.482,1397.429L977.476,1350.964L984.519,1358.971L939.525,1405.436ZM999.691,1343.303L992.648,1335.296L1037.641,1288.832L1044.684,1296.839L999.691,1343.303ZM1059.857,1281.17L1052.814,1273.163L1097.808,1226.698L1104.852,1234.705L1059.857,1281.17ZM1120.025,1219.035L1112.982,1211.028L1157.976,1164.564L1165.019,1172.571L1120.025,1219.035ZM1180.192,1156.901L1173.149,1148.895L1218.143,1102.43L1225.186,1110.437L1180.192,1156.901ZM1240.358,1094.769L1233.315,1086.762L1278.309,1040.297L1285.352,1048.304L1240.358,1094.769ZM1300.524,1032.636L1293.481,1024.63L1338.475,978.165L1345.518,986.172L1300.524,1032.636ZM1360.69,970.503L1353.647,962.496L1398.641,916.032L1405.684,924.038L1360.69,970.503ZM1420.857,908.37L1413.814,900.363L1458.808,853.898L1465.851,861.905L1420.857,908.37ZM1481.025,846.236L1473.982,838.229L1496.478,814.997L1502.047,813.934L1530.116,827.247L1526.022,837.379L1501.064,825.542L1481.025,846.236ZM1544.742,846.258L1548.835,836.125L1604.973,862.752L1600.88,872.884L1544.742,846.258ZM1619.598,881.763L1623.692,871.63L1679.828,898.256L1675.735,908.388L1619.598,881.763ZM1694.455,917.267L1698.549,907.134L1754.687,933.761L1750.593,943.894L1694.455,917.267ZM1769.315,952.773L1773.408,942.64L1829.545,969.266L1825.451,979.399L1769.315,952.773ZM1844.171,988.278L1848.265,978.145L1904.403,1004.771L1900.309,1014.904L1844.171,988.278ZM1919.029,1023.783L1923.123,1013.65L1979.259,1040.276L1975.165,1050.408L1919.029,1023.783ZM1993.885,1059.287L1997.979,1049.154L2054.118,1075.781L2050.024,1085.914L1993.885,1059.287ZM2068.742,1094.792L2072.836,1084.659L2128.974,1111.285L2124.881,1121.418L2068.742,1094.792ZM2143.598,1130.296L2147.692,1120.163L2203.828,1146.789L2199.735,1156.922L2143.598,1130.296ZM2218.455,1165.801L2222.549,1155.668L2278.687,1182.294L2274.593,1192.427L2218.455,1165.801ZM2293.311,1201.305L2297.405,1191.172L2353.542,1217.798L2349.448,1227.931L2293.311,1201.305ZM2368.17,1236.811L2372.264,1226.678L2428.401,1253.304L2424.307,1263.436L2368.17,1236.811ZM2443.027,1272.315L2447.12,1262.182L2503.258,1288.808L2499.164,1298.941L2443.027,1272.315ZM2517.884,1307.82L2521.977,1297.687L2578.115,1324.313L2574.022,1334.446L2517.884,1307.82ZM2592.741,1343.325L2596.835,1333.192L2652.972,1359.818L2648.878,1369.95L2592.741,1343.325ZM2667.598,1378.829L2671.691,1368.696L2727.829,1395.322L2723.735,1405.455L2667.598,1378.829ZM2742.455,1414.334L2746.548,1404.201L2802.686,1430.827L2798.592,1440.96L2742.455,1414.334ZM2817.312,1449.839L2821.406,1439.706L2877.543,1466.332L2873.449,1476.465L2817.312,1449.839ZM2892.171,1485.344L2896.264,1475.211L2952.402,1501.837L2948.308,1511.97L2892.171,1485.344ZM2967.026,1520.848L2971.12,1510.715L3027.258,1537.341L3023.164,1547.474L2967.026,1520.848ZM3041.884,1556.353L3045.978,1546.221L3078.723,1561.751L3074.629,1571.884L3041.884,1556.353ZM776.816,1900.915L770.879,1891.917L801.747,1868.01L807.683,1877.008L776.816,1900.915ZM826.453,1862.47L820.517,1853.472L873.946,1812.09L879.883,1821.088L826.453,1862.47ZM898.653,1806.551L892.716,1797.552L946.146,1756.17L952.083,1765.168L898.653,1806.551ZM970.854,1750.63L964.918,1741.631L1018.348,1700.249L1024.284,1709.247L970.854,1750.63ZM1043.053,1694.71L1037.117,1685.712L1090.547,1644.329L1096.483,1653.328L1043.053,1694.71ZM1115.254,1638.79L1109.318,1629.791L1162.748,1588.409L1168.684,1597.407L1115.254,1638.79ZM1187.453,1582.871L1181.516,1573.872L1234.946,1532.49L1240.883,1541.488L1187.453,1582.871ZM1259.653,1526.951L1253.716,1517.952L1307.146,1476.57L1313.083,1485.569L1259.653,1526.951ZM1331.854,1471.03L1325.917,1462.031L1379.347,1420.649L1385.284,1429.648L1331.854,1471.03ZM1404.054,1415.11L1398.117,1406.112L1451.547,1364.729L1457.484,1373.728L1404.054,1415.11ZM1476.253,1359.19L1470.317,1350.192L1497.032,1329.501L1501.592,1328.745L1531.004,1339.208L1527.82,1349.717L1522.97,1347.992L1500.865,1340.128L1476.253,1359.19ZM1547.596,1356.752L1550.781,1346.243L1609.605,1367.168L1606.421,1377.678L1547.596,1356.752ZM1626.196,1384.712L1629.38,1374.203L1688.204,1395.128L1685.02,1405.637L1626.196,1384.712ZM1704.795,1412.672L1707.98,1402.163L1766.804,1423.088L1763.62,1433.597L1704.795,1412.672ZM1783.395,1440.632L1786.579,1430.123L1845.403,1451.048L1842.219,1461.557L1783.395,1440.632ZM1861.996,1468.592L1865.181,1458.083L1924.005,1479.008L1920.821,1489.517L1861.996,1468.592ZM1940.595,1496.552L1943.779,1486.042L2002.604,1506.968L1999.419,1517.477L1940.595,1496.552ZM2019.195,1524.512L2022.379,1514.003L2081.204,1534.928L2078.019,1545.437L2019.195,1524.512ZM2097.798,1552.473L2100.982,1541.963L2159.806,1562.889L2156.621,1573.398L2097.798,1552.473ZM2176.396,1580.432L2179.58,1569.923L2238.405,1590.848L2235.22,1601.357L2176.396,1580.432ZM2254.994,1608.391L2258.178,1597.882L2317.002,1618.807L2313.818,1629.317L2254.994,1608.391ZM2333.596,1636.352L2336.781,1625.843L2395.605,1646.768L2392.421,1657.277L2333.596,1636.352ZM2412.197,1664.312L2415.381,1653.803L2474.206,1674.729L2471.021,1685.238L2412.197,1664.312ZM2490.794,1692.271L2493.978,1681.762L2552.802,1702.687L2549.618,1713.196L2490.794,1692.271ZM2569.396,1720.232L2572.581,1709.723L2631.405,1730.648L2628.221,1741.158L2569.396,1720.232ZM2647.998,1748.193L2651.182,1737.683L2710.006,1758.609L2706.822,1769.118L2647.998,1748.193ZM2726.595,1776.152L2729.779,1765.643L2788.603,1786.568L2785.419,1797.077L2726.595,1776.152ZM2805.194,1804.111L2808.379,1793.602L2867.203,1814.528L2864.019,1825.037L2805.194,1804.111ZM2883.795,1832.072L2886.979,1821.562L2945.803,1842.488L2942.619,1852.997L2883.795,1832.072ZM2962.395,1860.032L2965.579,1849.522L3024.403,1870.448L3021.219,1880.957L2962.395,1860.032ZM3040.996,1887.992L3044.18,1877.483L3078.442,1889.671L3075.257,1900.18L3040.996,1887.992ZM775.588,2229.172L771.196,2219.187L805.481,2201.484L809.873,2211.469L775.588,2229.172ZM830.741,2200.694L826.35,2190.709L885.704,2160.061L890.096,2170.046L830.741,2200.694ZM910.963,2159.272L906.571,2149.287L965.925,2118.64L970.317,2128.625L910.963,2159.272ZM991.185,2117.85L986.794,2107.864L1046.148,2077.217L1050.539,2087.202L991.185,2117.85ZM1071.407,2076.428L1067.015,2066.443L1126.37,2035.795L1130.761,2045.78L1071.407,2076.428ZM1151.629,2035.005L1147.238,2025.02L1206.592,1994.373L1210.984,2004.358L1151.629,2035.005ZM1231.853,1993.582L1227.461,1983.597L1286.816,1952.95L1291.207,1962.935L1231.853,1993.582ZM1312.074,1952.161L1307.682,1942.176L1367.037,1911.528L1371.428,1921.514L1312.074,1952.161ZM1392.296,1910.739L1387.904,1900.753L1447.259,1870.106L1451.65,1880.091L1392.296,1910.739ZM1472.519,1869.316L1468.127,1859.331L1497.804,1844.007L1501.091,1843.597L1531.933,1850.911L1529.75,1861.717L1500.617,1854.808L1472.519,1869.316ZM1550.804,1866.71L1552.987,1855.904L1614.67,1870.533L1612.488,1881.338L1550.804,1866.71ZM1633.542,1886.331L1635.724,1875.526L1697.408,1890.154L1695.225,1900.959L1633.542,1886.331ZM1716.277,1905.952L1718.46,1895.146L1780.144,1909.775L1777.961,1920.58L1716.277,1905.952ZM1799.013,1925.572L1801.196,1914.767L1862.878,1929.395L1860.696,1940.2L1799.013,1925.572ZM1881.752,1945.194L1883.935,1934.389L1945.617,1949.017L1943.434,1959.822L1881.752,1945.194ZM1964.486,1964.814L1966.669,1954.009L2028.352,1968.637L2026.169,1979.443L1964.486,1964.814ZM2047.225,1984.436L2049.407,1973.631L2111.091,1988.259L2108.909,1999.064L2047.225,1984.436ZM2129.963,2004.057L2132.145,1993.252L2193.828,2007.88L2191.645,2018.685L2129.963,2004.057ZM2212.697,2023.678L2214.879,2012.872L2276.562,2027.5L2274.379,2038.306L2212.697,2023.678ZM2295.436,2043.299L2297.618,2032.494L2359.302,2047.122L2357.119,2057.927L2295.436,2043.299ZM2378.174,2062.92L2380.356,2052.115L2442.039,2066.743L2439.856,2077.548L2378.174,2062.92ZM2460.911,2082.542L2463.093,2071.736L2524.776,2086.364L2522.593,2097.17L2460.911,2082.542ZM2543.644,2102.162L2545.827,2091.357L2607.509,2105.985L2605.327,2116.79L2543.644,2102.162ZM2626.382,2121.783L2628.564,2110.978L2690.248,2125.606L2688.065,2136.411L2626.382,2121.783ZM2709.121,2141.405L2711.304,2130.599L2772.987,2145.228L2770.804,2156.033L2709.121,2141.405ZM2791.857,2161.025L2794.04,2150.22L2855.722,2164.848L2853.54,2175.654L2791.857,2161.025ZM2874.593,2180.646L2876.776,2169.841L2938.459,2184.469L2936.276,2195.275L2874.593,2180.646ZM2957.331,2200.268L2959.514,2189.462L3021.197,2204.091L3019.014,2214.896L2957.331,2200.268ZM3040.067,2219.889L3042.25,2209.083L3078.078,2217.58L3075.895,2228.385L3040.067,2219.889ZM774.218,2557.062L771.852,2546.302L806.852,2537.266L809.218,2548.026L774.218,2557.062ZM829.371,2542.823L827.005,2532.063L887.075,2516.555L889.441,2527.314L829.371,2542.823ZM909.593,2522.112L907.227,2511.352L967.295,2495.844L969.662,2506.604L909.593,2522.112ZM989.815,2501.401L987.449,2490.641L1047.518,2475.133L1049.884,2485.893L989.815,2501.401ZM1070.036,2480.69L1067.67,2469.93L1127.74,2454.422L1130.106,2465.182L1070.036,2480.69ZM1150.259,2459.979L1147.893,2449.219L1207.962,2433.711L1210.328,2444.47L1150.259,2459.979ZM1230.483,2439.267L1228.116,2428.507L1288.186,2412.999L1290.552,2423.759L1230.483,2439.267ZM1310.704,2418.556L1308.337,2407.797L1368.407,2392.288L1370.773,2403.048L1310.704,2418.556ZM1390.926,2397.845L1388.56,2387.085L1448.629,2371.577L1450.995,2382.337L1390.926,2397.845ZM1471.148,2377.134L1468.782,2366.374L1498.817,2358.62L1500.555,2358.502L1531.484,2362.17L1530.374,2373.165L1500.323,2369.602L1471.148,2377.134ZM1551.252,2375.641L1552.363,2364.645L1614.222,2371.98L1613.111,2382.976L1551.252,2375.641ZM1633.99,2385.451L1635.1,2374.456L1696.96,2381.791L1695.849,2392.786L1633.99,2385.451ZM1716.725,2395.262L1717.836,2384.266L1779.696,2391.601L1778.585,2402.597L1716.725,2395.262ZM1799.462,2405.072L1800.572,2394.077L1862.43,2401.412L1861.32,2412.407L1799.462,2405.072ZM1882.201,2414.883L1883.311,2403.888L1945.169,2411.222L1944.058,2422.218L1882.201,2414.883ZM1964.935,2424.693L1966.045,2413.698L2027.904,2421.033L2026.793,2432.028L1964.935,2424.693ZM2047.673,2434.504L2048.783,2423.509L2110.643,2430.844L2109.533,2441.839L2047.673,2434.504ZM2130.411,2444.315L2131.522,2433.319L2193.38,2440.654L2192.269,2451.649L2130.411,2444.315ZM2213.145,2454.125L2214.256,2443.129L2276.113,2450.464L2275.003,2461.46L2213.145,2454.125ZM2295.884,2463.936L2296.995,2452.94L2358.854,2460.275L2357.743,2471.27L2295.884,2463.936ZM2378.622,2473.746L2379.732,2462.751L2441.591,2470.086L2440.48,2481.081L2378.622,2473.746ZM2461.359,2483.557L2462.47,2472.561L2524.327,2479.896L2523.217,2490.892L2461.359,2483.557ZM2544.093,2493.367L2545.203,2482.372L2607.061,2489.706L2605.951,2500.702L2544.093,2493.367ZM2626.83,2503.177L2627.94,2492.182L2689.799,2499.517L2688.689,2510.512L2626.83,2503.177ZM2709.569,2512.988L2710.68,2501.993L2772.539,2509.328L2771.428,2520.323L2709.569,2512.988ZM2792.305,2522.799L2793.416,2511.803L2855.274,2519.138L2854.163,2530.134L2792.305,2522.799ZM2875.042,2532.609L2876.152,2521.614L2938.011,2528.949L2936.9,2539.944L2875.042,2532.609ZM2957.779,2542.42L2958.89,2531.424L3020.748,2538.759L3019.638,2549.755L2957.779,2542.42ZM3040.516,2552.23L3041.626,2541.235L3077.629,2545.504L3076.519,2556.499L3040.516,2552.23ZM772.896,2884.53L772.896,2873.47L811.307,2873.47L811.307,2884.53L772.896,2884.53ZM834.943,2884.53L834.943,2873.47L901.557,2873.47L901.557,2884.53L834.943,2884.53ZM925.192,2884.53L925.192,2873.47L991.806,2873.47L991.806,2884.53L925.192,2884.53ZM1015.443,2884.53L1015.443,2873.47L1082.057,2873.47L1082.057,2884.53L1015.443,2884.53ZM1105.693,2884.53L1105.693,2873.47L1172.308,2873.47L1172.308,2884.53L1105.693,2884.53ZM1195.943,2884.53L1195.943,2873.47L1262.557,2873.47L1262.557,2884.53L1195.943,2884.53ZM1286.193,2884.53L1286.193,2873.47L1352.808,2873.47L1352.808,2884.53L1286.193,2884.53ZM1376.442,2884.53L1376.442,2873.47L1443.057,2873.47L1443.057,2884.53L1376.442,2884.53ZM1466.693,2884.53L1466.693,2873.47L1530.959,2873.47L1530.959,2884.53L1466.693,2884.53ZM1551.777,2884.53L1551.777,2873.47L1613.697,2873.47L1613.697,2884.53L1551.777,2884.53ZM1634.515,2884.53L1634.515,2873.47L1696.435,2873.47L1696.435,2884.53L1634.515,2884.53ZM1717.25,2884.53L1717.25,2873.47L1779.171,2873.47L1779.171,2884.53L1717.25,2884.53ZM1799.987,2884.53L1799.987,2873.47L1861.905,2873.47L1861.905,2884.53L1799.987,2884.53ZM1882.726,2884.53L1882.726,2873.47L1944.644,2873.47L1944.644,2884.53L1882.726,2884.53ZM1965.46,2884.53L1965.46,2873.47L2027.379,2873.47L2027.379,2884.53L1965.46,2884.53ZM2048.198,2884.53L2048.198,2873.47L2110.118,2873.47L2110.118,2884.53L2048.198,2884.53ZM2130.936,2884.53L2130.936,2873.47L2192.855,2873.47L2192.855,2884.53L2130.936,2884.53ZM2213.67,2884.53L2213.67,2873.47L2275.588,2873.47L2275.588,2884.53L2213.67,2884.53ZM2296.409,2884.53L2296.409,2873.47L2358.329,2873.47L2358.329,2884.53L2296.409,2884.53ZM2379.147,2884.53L2379.147,2873.47L2441.066,2873.47L2441.066,2884.53L2379.147,2884.53ZM2461.884,2884.53L2461.884,2873.47L2523.802,2873.47L2523.802,2884.53L2461.884,2884.53ZM2544.618,2884.53L2544.618,2873.47L2606.536,2873.47L2606.536,2884.53L2544.618,2884.53ZM2627.355,2884.53L2627.355,2873.47L2689.274,2873.47L2689.274,2884.53L2627.355,2884.53ZM2710.094,2884.53L2710.094,2873.47L2772.014,2873.47L2772.014,2884.53L2710.094,2884.53ZM2792.83,2884.53L2792.83,2873.47L2854.749,2873.47L2854.749,2884.53L2792.83,2884.53ZM2875.567,2884.53L2875.567,2873.47L2937.486,2873.47L2937.486,2884.53L2875.567,2884.53ZM2958.304,2884.53L2958.304,2873.47L3020.223,2873.47L3020.223,2884.53L2958.304,2884.53ZM3041.041,2884.53L3041.041,2873.47L3077.104,2873.47L3077.104,2884.53L3041.041,2884.53Z" style="fill:rgb(209,213,219);"/>
        </g>
        <g id="Center" transform="matrix(1.052061,0,0,0.970971,-20.255002,-433.00951)">
            <path d="M950.375,2945L950.375,547.4" style="fill:none;"/>
            <path d="M956.316,2951.437L944.434,2951.437L944.434,2905.987L956.316,2905.987L956.316,2951.437ZM956.316,2879.769L944.434,2879.769L944.434,2801.744L956.316,2801.744L956.316,2879.769ZM956.316,2775.525L944.434,2775.525L944.434,2697.497L956.316,2697.497L956.316,2775.525ZM956.316,2671.284L944.434,2671.284L944.434,2593.258L956.316,2593.258L956.316,2671.284ZM956.316,2567.039L944.434,2567.039L944.434,2489.015L956.316,2489.015L956.316,2567.039ZM956.316,2462.795L944.434,2462.795L944.434,2384.769L956.316,2384.769L956.316,2462.795ZM956.316,2358.552L944.434,2358.552L944.434,2280.524L956.316,2280.524L956.316,2358.552ZM956.316,2254.306L944.434,2254.306L944.434,2176.282L956.316,2176.282L956.316,2254.306ZM956.316,2150.066L944.434,2150.066L944.434,2072.042L956.316,2072.042L956.316,2150.066ZM956.316,2045.825L944.434,2045.825L944.434,1967.799L956.316,1967.799L956.316,2045.825ZM956.316,1941.577L944.434,1941.577L944.434,1863.551L956.316,1863.551L956.316,1941.577ZM956.316,1837.335L944.434,1837.335L944.434,1759.307L956.316,1759.307L956.316,1837.335ZM956.316,1733.091L944.434,1733.091L944.434,1655.067L956.316,1655.067L956.316,1733.091ZM956.316,1628.85L944.434,1628.85L944.434,1550.823L956.316,1550.823L956.316,1628.85ZM956.316,1524.601L944.434,1524.601L944.434,1446.576L956.316,1446.576L956.316,1524.601ZM956.316,1420.362L944.434,1420.362L944.434,1342.336L956.316,1342.336L956.316,1420.362ZM956.316,1316.117L944.434,1316.117L944.434,1238.091L956.316,1238.091L956.316,1316.117ZM956.316,1211.875L944.434,1211.875L944.434,1133.849L956.316,1133.849L956.316,1211.875ZM956.316,1107.632L944.434,1107.632L944.434,1029.605L956.316,1029.605L956.316,1107.632ZM956.316,1003.386L944.434,1003.386L944.434,925.36L956.316,925.36L956.316,1003.386ZM956.316,899.142L944.434,899.142L944.434,821.116L956.316,821.116L956.316,899.142ZM956.316,794.898L944.434,794.898L944.434,716.873L956.316,716.873L956.316,794.898ZM956.316,690.657L944.434,690.657L944.434,612.631L956.316,612.631L956.316,690.657ZM956.316,586.413L944.434,586.413L944.434,540.963L956.316,540.963L956.316,586.413Z" style="fill:rgb(209,213,219);"/>
        </g>
        <g transform="matrix(1.052061,0,0,0.970971,-20.255002,-433.00951)">
            <path d="M206.234,1723.148L206.234,1315.864" style="fill:none;"/>
            <path d="M212.175,1729.585L200.294,1729.585L200.294,1674.286L212.175,1674.286L212.175,1729.585ZM212.175,1636.249L200.294,1636.249L200.294,1538.525L212.175,1538.525L212.175,1636.249ZM212.175,1500.488L200.294,1500.488L200.294,1402.763L212.175,1402.763L212.175,1500.488ZM212.175,1364.727L200.294,1364.727L200.294,1309.428L212.175,1309.428L212.175,1364.727Z" style="fill:rgb(209,213,219);"/>
        </g>
        <g transform="matrix(1.052061,0,0,0.970971,-20.255002,-433.00951)">
            <path d="M2409.739,1665.932L2409.739,1239.577" style="fill:none;"/>
            <path d="M2415.68,1672.369L2403.798,1672.369L2403.798,1626.186L2415.68,1626.186L2415.68,1672.369ZM2415.68,1599.09L2403.798,1599.09L2403.798,1519.598L2415.68,1519.598L2415.68,1599.09ZM2415.68,1492.5L2403.798,1492.5L2403.798,1413.009L2415.68,1413.009L2415.68,1492.5ZM2415.68,1385.912L2403.798,1385.912L2403.798,1306.42L2415.68,1306.42L2415.68,1385.912ZM2415.68,1279.323L2403.798,1279.323L2403.798,1233.14L2415.68,1233.14L2415.68,1279.323Z" style="fill:rgb(209,213,219);"/>
        </g>
        <g transform="matrix(1.052061,0,0,0.970971,-20.255002,-433.00951)">
            <path d="M1500,1342.315L1500,808.087" style="fill:none;"/>
            <path d="M1505.941,1348.752L1494.059,1348.752L1494.059,1302.489L1505.941,1302.489L1505.941,1348.752ZM1505.941,1275.296L1494.059,1275.296L1494.059,1195.644L1505.941,1195.644L1505.941,1275.296ZM1505.941,1168.451L1494.059,1168.451L1494.059,1088.798L1505.941,1088.798L1505.941,1168.451ZM1505.941,1061.604L1494.059,1061.604L1494.059,981.952L1505.941,981.952L1505.941,1061.604ZM1505.941,954.759L1494.059,954.759L1494.059,875.107L1505.941,875.107L1505.941,954.759ZM1505.941,847.914L1494.059,847.914L1494.059,801.65L1505.941,801.65L1505.941,847.914Z" style="fill:rgb(209,213,219);"/>
        </g>
    </g>
    <g id="Bricks">
        <g id="Other-Bricks" serif:id="Other Bricks">
            <g transform="matrix(1,0,0,1,-4.525631,-528)">
                <path d="M984.123,1208.5L569.891,1504.6L569.891,1987.9L984.123,1790.5L984.123,1208.5Z" style="fill:rgb(209,213,219);stroke:white;stroke-width:16.67px;"/>
            </g>
            <g transform="matrix(1,0,0,1,-4.525631,-528)">
                <path d="M569.891,2469.117L100.051,2583.15L100.051,2954.5L569.891,2954.5L569.891,2469.117Z" style="fill:rgb(209,213,219);stroke:white;stroke-width:16.67px;"/>
            </g>
            <g transform="matrix(1,0,0,1,-4.525631,-528)">
                <path d="M2050.206,2954.5L2868.684,2954.5L2868.684,2578.738L2050.206,2489.167L2050.206,2954.5Z" style="fill:rgb(209,213,219);stroke:white;stroke-width:16.67px;"/>
            </g>
            <g transform="matrix(1,0,0,1,-4.525631,-528)">
                <path d="M984.123,1208.5L984.123,1790.5L2118.807,2038.85L2118.807,1581.024L984.123,1208.5Z" style="fill:rgb(209,213,219);stroke:white;stroke-width:16.67px;"/>
            </g>
            <g transform="matrix(1,0,0,1,-4.525631,-528)">
                <path d="M1455.176,1893.6L1455.176,2424.05L2431.435,2530.887L2431.435,2107.275L1455.176,1893.6Z" style="fill:rgb(209,213,219);stroke:white;stroke-width:16.67px;"/>
            </g>
            <g transform="matrix(1,0,0,1,-4.525631,-528)">
                <path d="M984.123,1790.5L1455.176,1893.6L1455.176,2424.05L984.123,2372.5L984.123,1790.5Z" style="fill:rgb(209,213,219);stroke:white;stroke-width:16.67px;"/>
            </g>
            <g transform="matrix(1,0,0,1,-4.525631,-528)">
                <path d="M201.242,2162.238L984.123,1790.5L984.123,2372.5C809.984,2410.32 584.504,2462.545 201.242,2559.039L201.242,2162.238Z" style="fill:rgb(209,213,219);stroke:white;stroke-width:16.67px;"/>
            </g>
        </g>
        <g id="Cornerstone" transform="matrix(1.052061,0,0,0.970971,-15.72937,94.99049)">
            <g transform="matrix(1,0,0,1,-4.301682,-543.785567)">
                <path d="M950.375,2345.6L1963.704,2465.755L1963.704,2945L950.375,2945L950.375,2345.6Z" style="fill:rgb(59,130,246);stroke:white;stroke-width:16.46px;stroke-miterlimit:1.5;"/>
            </g>
            <g transform="matrix(0.853678,0,0,1,134.758934,-543.785567)">
                <path d="M950.375,2345.6L489.648,2447.142L489.155,2945L950.375,2945L950.375,2345.6Z" style="fill:rgb(59,130,246);stroke:white;stroke-width:17.82px;stroke-miterlimit:1.5;"/>
            </g>
        </g>
    </g>
    <g transform="matrix(0.940452,0,0,0.940452,-192.945449,2282.284023)">
        <path d="M436.209,246.215C439.016,245.864 443.402,245.689 449.366,245.689L463.05,245.689C486.559,245.689 509.541,247.443 531.997,250.952C543.576,252.706 552.523,254.46 558.839,256.215L558.839,331.477C553.576,331.126 544.804,330.249 532.523,328.846C516.032,327.091 501.646,326.214 489.366,326.214C475.682,326.214 464.717,326.653 456.472,327.53C448.226,328.407 441.472,329.898 436.209,332.003L436.209,246.215ZM463.05,616.21C427.963,616.21 400.156,613.14 379.63,607C359.104,600.86 343.578,590.597 333.052,576.211C322.877,562.527 315.947,544.369 312.263,521.738C308.579,499.107 306.737,468.844 306.737,430.95C306.737,397.617 308.052,370.599 310.684,349.898C313.315,329.196 318.14,311.828 325.157,297.793C332.526,283.407 343.315,272.267 357.525,264.373C371.736,256.478 390.595,251.127 414.104,248.32L414.104,430.95C414.104,450.598 414.455,469.546 415.156,487.791C415.858,501.826 418.577,512.352 423.314,519.37C428.051,526.387 435.507,530.773 445.682,532.527C455.507,534.633 470.068,535.685 489.366,535.685C509.366,535.685 526.383,534.808 540.418,533.054C546.032,532.703 552.874,531.826 560.944,530.422L560.944,606.737C543.751,610.597 524.278,613.228 502.524,614.632C490.594,615.684 477.436,616.21 463.05,616.21Z" style="fill:white;fill-rule:nonzero;"/>
        <path d="M760.942,478.317C760.942,460.423 760.766,448.493 760.415,442.528C760.064,434.107 759.012,427.704 757.257,423.318C755.503,418.932 752.696,416.213 748.837,415.16C744.626,414.108 738.837,413.581 731.468,413.581L724.1,413.581L724.1,339.372L731.468,339.372C761.994,339.372 785.854,341.74 803.046,346.477C820.239,351.214 833.046,359.021 841.467,369.898C849.186,379.722 854.186,392.792 856.467,409.108C858.747,425.423 859.888,448.493 859.888,478.317C859.888,506.036 859.098,527.527 857.519,542.79C855.94,558.053 852.169,570.597 846.204,580.421C839.537,591.298 829.537,599.456 816.204,604.895C802.871,610.333 784.45,613.754 760.942,615.158L760.942,478.317ZM731.468,616.21C700.942,616.21 677.083,613.93 659.89,609.368C642.697,604.807 629.891,597.088 621.47,586.211C613.75,576.386 608.75,563.404 606.47,547.264C604.189,531.124 603.049,508.142 603.049,478.317C603.049,450.949 603.926,429.546 605.68,414.108C607.435,398.669 611.294,385.862 617.259,375.687C623.575,364.459 633.399,356.126 646.732,350.687C660.066,345.249 678.486,341.828 701.995,340.424L701.995,478.317C701.995,496.212 702.17,507.966 702.521,513.58C702.872,522.001 703.925,528.317 705.679,532.527C707.433,536.738 710.416,539.369 714.626,540.422C718.135,541.475 723.749,542.001 731.468,542.001L738.837,542.001L738.837,616.21L731.468,616.21Z" style="fill:white;fill-rule:nonzero;"/>
        <path d="M1031.465,358.845C1038.833,351.828 1047.517,346.828 1057.517,343.845C1067.517,340.863 1079.885,339.372 1094.622,339.372L1094.622,427.265C1078.833,427.265 1065.938,428.318 1055.938,430.423C1045.938,432.528 1037.78,436.213 1031.465,441.476L1031.465,358.845ZM911.992,343.582L1009.36,343.582L1009.36,612L911.992,612L911.992,343.582Z" style="fill:white;fill-rule:nonzero;"/>
        <path d="M1287.777,485.159C1287.777,466.563 1287.602,454.283 1287.251,448.318C1286.549,438.493 1285.672,432.002 1284.62,428.844C1283.216,425.336 1280.76,423.143 1277.251,422.265C1273.742,421.388 1268.129,420.95 1260.409,420.95L1255.146,420.95L1255.146,355.161C1268.83,344.986 1286.725,339.898 1308.83,339.898C1340.408,339.898 1361.636,349.547 1372.513,368.845C1377.425,377.266 1380.759,387.529 1382.513,399.634C1384.267,411.739 1385.145,426.564 1385.145,444.107L1385.145,612L1287.777,612L1287.777,485.159ZM1135.674,343.582L1233.041,343.582L1233.041,612L1135.674,612L1135.674,343.582Z" style="fill:white;fill-rule:nonzero;"/>
        <path d="M1556.195,451.476L1593.037,451.476C1593.037,431.827 1591.107,419.195 1587.247,413.581C1585.142,410.423 1582.335,408.406 1578.827,407.529C1575.318,406.652 1570.23,406.213 1563.564,406.213L1556.195,406.213L1556.195,339.372L1563.564,339.372C1593.739,339.372 1616.984,341.828 1633.3,346.74C1649.615,351.652 1661.633,359.722 1669.352,370.95C1676.369,380.775 1680.667,393.406 1682.246,408.845C1683.825,424.283 1684.615,447.441 1684.615,478.317L1684.615,499.37L1556.195,499.37L1556.195,451.476ZM1574.09,616.21C1541.809,616.21 1516.459,613.491 1498.038,608.053C1479.617,602.614 1465.845,593.93 1456.723,582C1448.653,571.474 1443.39,558.404 1440.933,542.79C1438.477,527.176 1437.249,505.685 1437.249,478.317C1437.249,453.055 1438.126,432.967 1439.881,418.055C1441.635,403.143 1445.319,390.424 1450.933,379.898C1457.249,368.319 1466.986,359.284 1480.144,352.793C1493.301,346.301 1511.283,342.179 1534.09,340.424L1534.09,499.37C1534.09,511.299 1534.617,519.808 1535.669,524.896C1536.722,529.983 1539.178,533.755 1543.038,536.211C1547.248,539.018 1553.739,540.597 1562.511,540.948C1573.739,541.65 1585.669,542.001 1598.3,542.001C1620.756,542.001 1637.071,541.475 1647.247,540.422L1674.089,538.317L1674.089,606.211C1660.054,610.421 1640.756,613.228 1616.195,614.632C1604.265,615.684 1590.23,616.21 1574.09,616.21Z" style="fill:white;fill-rule:nonzero;"/>
        <path d="M1857.771,358.845C1865.139,351.828 1873.823,346.828 1883.823,343.845C1893.823,340.863 1906.191,339.372 1920.928,339.372L1920.928,427.265C1905.138,427.265 1892.244,428.318 1882.244,430.423C1872.244,432.528 1864.086,436.213 1857.771,441.476L1857.771,358.845ZM1738.298,343.582L1835.666,343.582L1835.666,612L1738.298,612L1738.298,343.582Z" style="fill:white;fill-rule:nonzero;"/>
        <path d="M2160.925,416.739C2154.258,416.388 2145.136,415.511 2133.557,414.108C2111.803,412.002 2094.259,410.95 2080.926,410.95L2063.558,410.95L2063.558,339.372C2088.47,339.372 2112.153,341.126 2134.609,344.635L2160.925,349.372L2160.925,416.739ZM2084.61,530.422C2084.61,525.159 2083.733,521.826 2081.978,520.422C2080.224,519.019 2076.54,517.966 2070.926,517.264L2014.084,509.37C2000.05,507.264 1988.734,503.931 1980.138,499.37C1971.541,494.808 1965.138,488.668 1960.927,480.949C1956.717,474.282 1953.91,466.212 1952.506,456.739C1951.103,447.265 1950.401,435.511 1950.401,421.476C1950.401,392.704 1958.997,371.652 1976.19,358.319C1990.576,347.793 2012.33,341.652 2041.453,339.898L2041.453,422.529C2041.453,427.792 2042.154,431.213 2043.558,432.792C2044.961,434.371 2049.347,435.686 2056.716,436.739L2119.873,445.16C2128.995,446.213 2136.89,448.055 2143.557,450.686C2150.223,453.318 2155.837,457.265 2160.399,462.528C2170.574,473.756 2175.661,495.335 2175.661,527.264C2175.661,560.948 2167.065,584.456 2149.872,597.79C2134.785,609.018 2113.031,614.982 2084.61,615.684L2084.61,530.422ZM2062.505,616.21C2034.435,615.86 2009.874,614.105 1988.822,610.947L1958.822,606.211L1958.822,538.843C1972.857,540.246 1991.804,541.65 2015.663,543.053C2028.997,543.755 2038.47,544.106 2044.084,544.106L2062.505,544.106L2062.505,616.21Z" style="fill:white;fill-rule:nonzero;"/>
        <path d="M2200.924,343.582L2250.397,343.582L2250.397,265.688L2347.765,265.688L2347.765,343.582L2406.711,343.582L2406.711,417.792L2200.924,417.792L2200.924,343.582ZM2250.397,438.844L2347.765,438.844L2347.765,612L2250.397,612L2250.397,438.844Z" style="fill:white;fill-rule:nonzero;"/>
        <path d="M2593.551,478.317C2593.551,460.423 2593.376,448.493 2593.025,442.528C2592.674,434.107 2591.621,427.704 2589.867,423.318C2588.113,418.932 2585.306,416.213 2581.446,415.16C2577.236,414.108 2571.446,413.581 2564.078,413.581L2556.71,413.581L2556.71,339.372L2564.078,339.372C2594.604,339.372 2618.463,341.74 2635.656,346.477C2652.849,351.214 2665.656,359.021 2674.077,369.898C2681.796,379.722 2686.796,392.792 2689.076,409.108C2691.357,425.423 2692.497,448.493 2692.497,478.317C2692.497,506.036 2691.708,527.527 2690.129,542.79C2688.55,558.053 2684.778,570.597 2678.813,580.421C2672.147,591.298 2662.147,599.456 2648.814,604.895C2635.481,610.333 2617.06,613.754 2593.551,615.158L2593.551,478.317ZM2564.078,616.21C2533.552,616.21 2509.693,613.93 2492.5,609.368C2475.307,604.807 2462.5,597.088 2454.079,586.211C2446.36,576.386 2441.36,563.404 2439.079,547.264C2436.799,531.124 2435.658,508.142 2435.658,478.317C2435.658,450.949 2436.536,429.546 2438.29,414.108C2440.044,398.669 2443.904,385.862 2449.869,375.687C2456.184,364.459 2466.009,356.126 2479.342,350.687C2492.675,345.249 2511.096,341.828 2534.605,340.424L2534.605,478.317C2534.605,496.212 2534.78,507.966 2535.131,513.58C2535.482,522.001 2536.534,528.317 2538.289,532.527C2540.043,536.738 2543.026,539.369 2547.236,540.422C2550.745,541.475 2556.359,542.001 2564.078,542.001L2571.446,542.001L2571.446,616.21L2564.078,616.21Z" style="fill:white;fill-rule:nonzero;"/>
        <path d="M2896.705,485.159C2896.705,466.563 2896.53,454.283 2896.179,448.318C2895.477,438.493 2894.6,432.002 2893.548,428.844C2892.144,425.336 2889.688,423.143 2886.179,422.265C2882.671,421.388 2877.057,420.95 2869.337,420.95L2864.074,420.95L2864.074,355.161C2877.758,344.986 2895.653,339.898 2917.758,339.898C2949.336,339.898 2970.564,349.547 2981.441,368.845C2986.354,377.266 2989.687,387.529 2991.441,399.634C2993.196,411.739 2994.073,426.564 2994.073,444.107L2994.073,612L2896.705,612L2896.705,485.159ZM2744.602,343.582L2841.969,343.582L2841.969,612L2744.602,612L2744.602,343.582Z" style="fill:white;fill-rule:nonzero;"/>
        <path d="M3165.123,451.476L3201.965,451.476C3201.965,431.827 3200.035,419.195 3196.176,413.581C3194.07,410.423 3191.263,408.406 3187.755,407.529C3184.246,406.652 3179.158,406.213 3172.492,406.213L3165.123,406.213L3165.123,339.372L3172.492,339.372C3202.667,339.372 3225.912,341.828 3242.228,346.74C3258.543,351.652 3270.561,359.722 3278.28,370.95C3285.297,380.775 3289.595,393.406 3291.174,408.845C3292.753,424.283 3293.543,447.441 3293.543,478.317L3293.543,499.37L3165.123,499.37L3165.123,451.476ZM3183.018,616.21C3150.738,616.21 3125.387,613.491 3106.966,608.053C3088.545,602.614 3074.774,593.93 3065.651,582C3057.581,571.474 3052.318,558.404 3049.862,542.79C3047.405,527.176 3046.177,505.685 3046.177,478.317C3046.177,453.055 3047.055,432.967 3048.809,418.055C3050.563,403.143 3054.247,390.424 3059.861,379.898C3066.177,368.319 3075.914,359.284 3089.072,352.793C3102.229,346.301 3120.212,342.179 3143.018,340.424L3143.018,499.37C3143.018,511.299 3143.545,519.808 3144.597,524.896C3145.65,529.983 3148.106,533.755 3151.966,536.211C3156.176,539.018 3162.667,540.597 3171.439,540.948C3182.667,541.65 3194.597,542.001 3207.228,542.001C3229.684,542.001 3246,541.475 3256.175,540.422L3283.017,538.317L3283.017,606.211C3268.982,610.421 3249.684,613.228 3225.123,614.632C3213.193,615.684 3199.158,616.21 3183.018,616.21Z" style="fill:white;fill-rule:nonzero;"/>
    </g>
</svg>
