<?xml version="1.0" encoding="UTF-8" standalone="no"?>
<!DOCTYPE svg PUBLIC "-//W3C//DTD SVG 1.1//EN" "http://www.w3.org/Graphics/SVG/1.1/DTD/svg11.dtd">
<svg width="100%" height="100%" viewBox="0 0 3000 3000" version="1.1" xmlns="http://www.w3.org/2000/svg" xmlns:xlink="http://www.w3.org/1999/xlink" xml:space="preserve" xmlns:serif="http://www.serif.com/" style="fill-rule:evenodd;clip-rule:evenodd;stroke-linecap:square;stroke-linejoin:round;stroke-miterlimit:1;">
    <g id="Structure" transform="matrix(1,0,0,1,0,237.5)">
        <g transform="matrix(1.224476,0,0,1.130097,-857.116966,-827.049515)">
            <path d="M778,1564.6L1500,819L3072,1564.6M778,1893.2L1500,1334L3072,1893.2M778,2221.8L1500,1849L3072,2221.8M778,2550.4L1500,2364L3072,2550.4M778,2879L3072,2879" style="fill:rgb(235,235,235);fill-opacity:0;"/>
            <path d="M792.086,1580.614C783.929,1589.037 770.995,1588.701 763.221,1579.863C755.446,1571.024 755.757,1557.01 763.914,1548.586L815.486,1495.329C823.643,1486.905 836.577,1487.242 844.351,1496.08C852.126,1504.918 851.815,1518.932 843.658,1527.356L792.086,1580.614ZM981.182,1385.337C973.025,1393.761 960.09,1393.424 952.316,1384.586C944.542,1375.748 944.852,1361.733 953.009,1353.31L1056.152,1246.795C1064.309,1238.372 1077.244,1238.708 1085.018,1247.547C1092.792,1256.385 1092.482,1270.399 1084.325,1278.823L981.182,1385.337ZM1221.847,1136.805C1213.69,1145.229 1200.756,1144.892 1192.981,1136.054C1185.207,1127.216 1185.518,1113.201 1193.675,1104.778L1296.818,998.263C1304.975,989.84 1317.909,990.176 1325.683,999.015C1333.458,1007.853 1333.147,1021.867 1324.99,1030.291L1221.847,1136.805ZM1462.514,888.271C1454.357,896.695 1441.423,896.358 1433.649,887.52C1425.874,878.682 1426.185,864.668 1434.342,856.244L1485.914,802.986L1508.187,798.735L1564.33,825.363C1574.653,830.259 1579.365,843.315 1574.846,854.5C1570.327,865.684 1558.278,870.79 1547.955,865.894L1504.255,845.167L1462.514,888.271ZM1697.67,936.903C1687.347,932.007 1682.635,918.952 1687.153,907.767C1691.672,896.582 1703.721,891.476 1714.044,896.373L1826.331,949.63C1836.653,954.526 1841.365,967.582 1836.847,978.766C1832.328,989.951 1820.279,995.057 1809.956,990.161L1697.67,936.903ZM1959.671,1061.171C1949.349,1056.275 1944.637,1043.219 1949.155,1032.034C1953.674,1020.85 1965.723,1015.744 1976.046,1020.64L2088.332,1073.897C2098.655,1078.793 2103.367,1091.849 2098.848,1103.034C2094.33,1114.219 2082.28,1119.324 2071.958,1114.428L1959.671,1061.171ZM2221.67,1185.437C2211.347,1180.541 2206.635,1167.485 2211.154,1156.3C2215.672,1145.116 2227.722,1140.01 2238.044,1144.906L2350.331,1198.164C2360.654,1203.06 2365.366,1216.115 2360.847,1227.3C2356.329,1238.485 2344.279,1243.591 2333.957,1238.695L2221.67,1185.437ZM2483.672,1309.704C2473.349,1304.808 2468.637,1291.753 2473.156,1280.568C2477.674,1269.383 2489.724,1264.277 2500.046,1269.174L2612.332,1322.431C2622.655,1327.327 2627.367,1340.383 2622.849,1351.567C2618.33,1362.752 2606.281,1367.858 2595.958,1362.962L2483.672,1309.704ZM2745.671,1433.971C2735.348,1429.075 2730.636,1416.019 2735.155,1404.834C2739.674,1393.649 2751.723,1388.544 2762.046,1393.44L2874.331,1446.697C2884.654,1451.593 2889.366,1464.649 2884.848,1475.834C2880.329,1487.018 2868.28,1492.124 2857.957,1487.228L2745.671,1433.971ZM3007.67,1558.237C2997.347,1553.341 2992.635,1540.285 2997.154,1529.1C3001.673,1517.916 3013.722,1512.81 3024.045,1517.706L3080.187,1544.335C3090.51,1549.231 3095.222,1562.286 3090.703,1573.471C3086.185,1584.656 3074.135,1589.761 3063.813,1584.865L3007.67,1558.237ZM789.873,1911.197C780.706,1918.297 767.943,1915.997 761.39,1906.064C754.837,1896.132 756.96,1882.303 766.127,1875.203L817.699,1835.26C826.866,1828.16 839.629,1830.459 846.182,1840.392C852.735,1850.325 850.612,1864.153 841.445,1871.254L789.873,1911.197ZM978.968,1764.74C969.801,1771.84 957.039,1769.54 950.486,1759.607C943.933,1749.674 946.055,1735.846 955.223,1728.746L1058.366,1648.86C1067.533,1641.76 1080.295,1644.06 1086.848,1653.992C1093.401,1663.925 1091.279,1677.754 1082.111,1684.854L978.968,1764.74ZM1219.634,1578.341C1210.467,1585.441 1197.704,1583.141 1191.151,1573.208C1184.598,1563.275 1186.721,1549.447 1195.888,1542.347L1299.031,1462.461C1308.198,1455.361 1320.961,1457.661 1327.514,1467.593C1334.066,1477.526 1331.944,1491.355 1322.777,1498.455L1219.634,1578.341ZM1460.301,1391.94C1451.134,1399.04 1438.371,1396.741 1431.818,1386.808C1425.265,1376.875 1427.388,1363.047 1436.555,1355.946L1488.127,1316.003L1506.369,1312.982L1573.739,1336.947C1584.446,1340.756 1590.284,1353.266 1586.769,1364.866C1583.254,1376.466 1571.708,1382.792 1561.002,1378.984L1503.458,1358.514L1460.301,1391.94ZM1740.659,1442.892C1729.953,1439.084 1724.115,1426.574 1727.63,1414.974C1731.145,1403.373 1742.69,1397.047 1753.397,1400.856L1888.139,1448.787C1898.845,1452.596 1904.684,1465.106 1901.169,1476.706C1897.654,1488.306 1886.108,1494.632 1875.402,1490.824L1740.659,1442.892ZM2055.058,1554.732C2044.352,1550.923 2038.514,1538.414 2042.029,1526.813C2045.543,1515.213 2057.089,1508.887 2067.795,1512.695L2202.538,1560.627C2213.244,1564.435 2219.083,1576.945 2215.568,1588.545C2212.053,1600.146 2200.507,1606.472 2189.801,1602.663L2055.058,1554.732ZM2369.459,1666.572C2358.753,1662.764 2352.914,1650.254 2356.429,1638.653C2359.944,1627.053 2371.49,1620.727 2382.196,1624.536L2516.938,1672.467C2527.644,1676.275 2533.483,1688.785 2529.968,1700.385C2526.453,1711.986 2514.907,1718.312 2504.201,1714.503L2369.459,1666.572ZM2683.862,1778.413C2673.156,1774.605 2667.317,1762.095 2670.832,1750.494C2674.347,1738.894 2685.893,1732.568 2696.599,1736.377L2831.341,1784.308C2842.048,1788.116 2847.886,1800.626 2844.371,1812.227C2840.856,1823.827 2829.31,1830.153 2818.604,1826.344L2683.862,1778.413ZM2998.261,1890.253C2987.554,1886.444 2981.716,1873.934 2985.231,1862.334C2988.746,1850.734 3000.292,1844.408 3010.998,1848.216L3078.369,1872.182C3089.075,1875.99 3094.913,1888.5 3091.398,1900.1C3087.883,1911.701 3076.338,1918.027 3065.631,1914.218L2998.261,1890.253ZM786.783,2241.77C776.611,2247.023 764.417,2242.339 759.569,2231.317C754.721,2220.295 759.044,2207.082 769.217,2201.83L846.574,2161.887C856.746,2156.634 868.94,2161.319 873.788,2172.34C878.636,2183.362 874.313,2196.575 864.14,2201.828L786.783,2241.77ZM1070.426,2095.313C1060.253,2100.566 1048.059,2095.882 1043.211,2084.86C1038.364,2073.838 1042.687,2060.625 1052.859,2055.373L1207.573,1975.487C1217.745,1970.235 1229.94,1974.919 1234.787,1985.941C1239.635,1996.963 1235.312,2010.175 1225.14,2015.428L1070.426,2095.313ZM1431.426,1908.913C1421.254,1914.166 1409.06,1909.481 1404.212,1898.46C1399.364,1887.438 1403.687,1874.225 1413.86,1868.972L1491.217,1829.03L1504.365,1827.39L1571.736,1843.367C1582.744,1845.977 1589.725,1857.78 1587.316,1869.707C1584.906,1881.634 1574.013,1889.198 1563.006,1886.587L1502.468,1872.231L1431.426,1908.913ZM1742.663,1929.193C1731.655,1926.583 1724.674,1914.78 1727.083,1902.853C1729.493,1890.926 1740.386,1883.362 1751.393,1885.972L1886.136,1917.927C1897.144,1920.537 1904.125,1932.34 1901.715,1944.267C1899.306,1956.194 1888.413,1963.758 1877.405,1961.147L1742.663,1929.193ZM2057.061,2003.753C2046.054,2001.142 2039.073,1989.34 2041.482,1977.413C2043.891,1965.485 2054.784,1957.922 2065.792,1960.532L2200.535,1992.486C2211.543,1995.097 2218.523,2006.899 2216.114,2018.827C2213.705,2030.754 2202.812,2038.318 2191.804,2035.707L2057.061,2003.753ZM2371.462,2078.313C2360.454,2075.703 2353.473,2063.9 2355.883,2051.973C2358.292,2040.046 2369.185,2032.482 2380.193,2035.092L2514.935,2067.046C2525.943,2069.657 2532.923,2081.459 2530.514,2093.387C2528.105,2105.314 2517.212,2112.878 2506.204,2110.267L2371.462,2078.313ZM2685.865,2152.874C2674.857,2150.263 2667.876,2138.46 2670.285,2126.533C2672.695,2114.606 2683.588,2107.042 2694.596,2109.653L2829.338,2141.607C2840.346,2144.218 2847.327,2156.02 2844.918,2167.947C2842.508,2179.874 2831.615,2187.438 2820.607,2184.828L2685.865,2152.874ZM3000.264,2227.433C2989.256,2224.823 2982.275,2213.02 2984.684,2201.093C2987.094,2189.166 2997.987,2181.602 3008.994,2184.213L3076.365,2200.19C3087.373,2202.8 3094.354,2214.603 3091.945,2226.53C3089.535,2238.457 3078.642,2246.021 3067.635,2243.41L3000.264,2227.433ZM782.732,2571.92C771.771,2574.75 760.751,2567.404 758.139,2555.528C755.527,2543.651 762.306,2531.71 773.268,2528.88L850.625,2508.909C861.586,2506.079 872.606,2513.424 875.218,2525.301C877.83,2537.178 871.051,2549.118 860.089,2551.948L782.732,2571.92ZM1066.375,2498.691C1055.413,2501.521 1044.393,2494.176 1041.781,2482.299C1039.17,2470.422 1045.949,2458.482 1056.91,2455.652L1211.624,2415.709C1222.586,2412.879 1233.605,2420.224 1236.217,2432.101C1238.829,2443.978 1232.05,2455.918 1221.089,2458.748L1066.375,2498.691ZM1427.375,2405.491C1416.414,2408.321 1405.394,2400.976 1402.782,2389.099C1400.17,2377.222 1406.949,2365.282 1417.911,2362.452L1495.268,2342.48L1502.221,2342.009L1569.592,2349.998C1580.793,2351.326 1588.892,2362.258 1587.667,2374.395C1586.441,2386.532 1576.351,2395.307 1565.15,2393.979L1501.293,2386.407L1427.375,2405.491ZM1744.807,2415.282C1733.605,2413.954 1725.506,2403.022 1726.732,2390.885C1727.958,2378.748 1738.048,2369.972 1749.249,2371.301L1883.992,2387.278C1895.193,2388.606 1903.292,2399.538 1902.066,2411.675C1900.841,2423.812 1890.751,2432.587 1879.55,2431.259L1744.807,2415.282ZM2059.206,2452.562C2048.004,2451.234 2039.905,2440.302 2041.131,2428.165C2042.357,2416.028 2052.446,2407.252 2063.648,2408.581L2198.39,2424.558C2209.592,2425.886 2217.691,2436.818 2216.465,2448.955C2215.239,2461.092 2205.15,2469.867 2193.948,2468.539L2059.206,2452.562ZM2373.606,2489.842C2362.405,2488.514 2354.306,2477.582 2355.532,2465.445C2356.758,2453.308 2366.847,2444.532 2378.049,2445.861L2512.79,2461.838C2523.992,2463.166 2532.091,2474.098 2530.865,2486.235C2529.639,2498.372 2519.55,2507.147 2508.348,2505.819L2373.606,2489.842ZM2688.009,2527.122C2676.808,2525.794 2668.709,2514.862 2669.935,2502.725C2671.16,2490.588 2681.25,2481.813 2692.451,2483.141L2827.194,2499.118C2838.395,2500.446 2846.494,2511.378 2845.269,2523.515C2844.043,2535.652 2833.953,2544.428 2822.752,2543.099L2688.009,2527.122ZM3002.408,2564.402C2991.207,2563.074 2983.108,2552.142 2984.333,2540.005C2985.559,2527.868 2995.649,2519.093 3006.85,2520.421L3074.221,2528.409C3085.423,2529.738 3093.522,2540.67 3092.296,2552.807C3091.07,2564.944 3080.98,2573.719 3069.779,2572.391L3002.408,2564.402ZM778,2901.122C766.732,2901.122 757.583,2891.209 757.583,2879C757.583,2866.791 766.732,2856.878 778,2856.878L855.357,2856.878C866.625,2856.878 875.774,2866.791 875.774,2879C875.774,2891.209 866.625,2901.122 855.357,2901.122L778,2901.122ZM1061.642,2901.122C1050.374,2901.122 1041.225,2891.209 1041.225,2879C1041.225,2866.791 1050.374,2856.878 1061.642,2856.878L1216.356,2856.878C1227.625,2856.878 1236.773,2866.791 1236.773,2879C1236.773,2891.209 1227.625,2901.122 1216.356,2901.122L1061.642,2901.122ZM1422.643,2901.122C1411.375,2901.122 1402.226,2891.209 1402.226,2879C1402.226,2866.791 1411.375,2856.878 1422.643,2856.878L1567.371,2856.878C1578.639,2856.878 1587.788,2866.791 1587.788,2879C1587.788,2891.209 1578.639,2901.122 1567.371,2901.122L1422.643,2901.122ZM1747.028,2901.122C1735.76,2901.122 1726.611,2891.209 1726.611,2879C1726.611,2866.791 1735.76,2856.878 1747.028,2856.878L1881.771,2856.878C1893.039,2856.878 1902.188,2866.791 1902.188,2879C1902.188,2891.209 1893.039,2901.122 1881.771,2901.122L1747.028,2901.122ZM2061.427,2901.122C2050.158,2901.122 2041.01,2891.209 2041.01,2879C2041.01,2866.791 2050.158,2856.878 2061.427,2856.878L2196.169,2856.878C2207.438,2856.878 2216.586,2866.791 2216.586,2879C2216.586,2891.209 2207.438,2901.122 2196.169,2901.122L2061.427,2901.122ZM2375.827,2901.122C2364.559,2901.122 2355.411,2891.209 2355.411,2879C2355.411,2866.791 2364.559,2856.878 2375.827,2856.878L2510.569,2856.878C2521.838,2856.878 2530.986,2866.791 2530.986,2879C2530.986,2891.209 2521.838,2901.122 2510.569,2901.122L2375.827,2901.122ZM2690.23,2901.122C2678.962,2901.122 2669.813,2891.209 2669.813,2879C2669.813,2866.791 2678.962,2856.878 2690.23,2856.878L2824.973,2856.878C2836.241,2856.878 2845.39,2866.791 2845.39,2879C2845.39,2891.209 2836.241,2901.122 2824.973,2901.122L2690.23,2901.122ZM3004.629,2901.122C2993.361,2901.122 2984.212,2891.209 2984.212,2879C2984.212,2866.791 2993.361,2856.878 3004.629,2856.878L3072,2856.878C3083.268,2856.878 3092.417,2866.791 3092.417,2879C3092.417,2891.209 3083.268,2901.122 3072,2901.122L3004.629,2901.122Z" style="fill:rgb(209,213,219);"/>
        </g>
        <g id="Center" transform="matrix(1.052061,0,0,0.970971,-20.255002,-433.00951)">
            <path d="M950.375,2945L950.375,547.4" style="fill:none;"/>
            <path d="M974.138,2945C974.138,2959.21 963.49,2970.747 950.375,2970.747C937.26,2970.747 926.612,2959.21 926.612,2945L926.612,2859.372C926.612,2845.161 937.26,2833.624 950.375,2833.624C963.49,2833.624 974.138,2845.161 974.138,2859.372L974.138,2945ZM974.138,2631.029C974.138,2645.239 963.49,2656.776 950.375,2656.776C937.26,2656.776 926.612,2645.239 926.612,2631.029L926.612,2459.771C926.612,2445.56 937.26,2434.023 950.375,2434.023C963.49,2434.023 974.138,2445.56 974.138,2459.771L974.138,2631.029ZM974.138,2231.426C974.138,2245.637 963.49,2257.174 950.375,2257.174C937.26,2257.174 926.612,2245.637 926.612,2231.426L926.612,2060.168C926.612,2045.958 937.26,2034.421 950.375,2034.421C963.49,2034.421 974.138,2045.958 974.138,2060.168L974.138,2231.426ZM974.138,1831.829C974.138,1846.039 963.49,1857.576 950.375,1857.576C937.26,1857.576 926.612,1846.039 926.612,1831.829L926.612,1660.57C926.612,1646.359 937.26,1634.822 950.375,1634.822C963.49,1634.822 974.138,1646.359 974.138,1660.57L974.138,1831.829ZM974.138,1432.226C974.138,1446.436 963.49,1457.973 950.375,1457.973C937.26,1457.973 926.612,1446.436 926.612,1432.226L926.612,1260.968C926.612,1246.757 937.26,1235.22 950.375,1235.22C963.49,1235.22 974.138,1246.757 974.138,1260.968L974.138,1432.226ZM974.138,1032.627C974.138,1046.837 963.49,1058.374 950.375,1058.374C937.26,1058.374 926.612,1046.837 926.612,1032.627L926.612,861.369C926.612,847.159 937.26,835.622 950.375,835.622C963.49,835.622 974.138,847.159 974.138,861.369L974.138,1032.627ZM974.138,633.028C974.138,647.239 963.49,658.776 950.375,658.776C937.26,658.776 926.612,647.239 926.612,633.028L926.612,547.4C926.612,533.19 937.26,521.653 950.375,521.653C963.49,521.653 974.138,533.19 974.138,547.4L974.138,633.028Z" style="fill:rgb(209,213,219);"/>
        </g>
        <g transform="matrix(1.052061,0,0,0.970971,-20.255002,-433.00951)">
            <path d="M206.234,1723.148L206.234,1315.864" style="fill:none;"/>
            <path d="M229.997,1723.148C229.997,1737.359 219.349,1748.896 206.234,1748.896C193.119,1748.896 182.472,1737.359 182.472,1723.148L182.472,1635.873C182.472,1621.663 193.119,1610.125 206.234,1610.125C219.349,1610.125 229.997,1621.663 229.997,1635.873L229.997,1723.148ZM229.997,1403.14C229.997,1417.35 219.349,1428.887 206.234,1428.887C193.119,1428.887 182.472,1417.35 182.472,1403.14L182.472,1315.864C182.472,1301.654 193.119,1290.117 206.234,1290.117C219.349,1290.117 229.997,1301.654 229.997,1315.864L229.997,1403.14Z" style="fill:rgb(209,213,219);"/>
        </g>
        <g transform="matrix(1.052061,0,0,0.970971,-20.255002,-433.00951)">
            <path d="M2409.739,1665.932L2409.739,1239.577" style="fill:none;"/>
            <path d="M2433.502,1665.932C2433.502,1680.143 2422.854,1691.68 2409.739,1691.68C2396.624,1691.68 2385.976,1680.143 2385.976,1665.932L2385.976,1574.57C2385.976,1560.36 2396.624,1548.823 2409.739,1548.823C2422.854,1548.823 2433.502,1560.36 2433.502,1574.57L2433.502,1665.932ZM2433.502,1330.939C2433.502,1345.149 2422.854,1356.686 2409.739,1356.686C2396.624,1356.686 2385.976,1345.149 2385.976,1330.939L2385.976,1239.577C2385.976,1225.366 2396.624,1213.829 2409.739,1213.829C2422.854,1213.829 2433.502,1225.366 2433.502,1239.577L2433.502,1330.939Z" style="fill:rgb(209,213,219);"/>
        </g>
        <g transform="matrix(1.052061,0,0,0.970971,-20.255002,-433.00951)">
            <path d="M1500,1342.315L1500,808.087" style="fill:none;"/>
            <path d="M1523.763,1342.315C1523.763,1356.526 1513.115,1368.063 1500,1368.063C1486.885,1368.063 1476.237,1356.526 1476.237,1342.315L1476.237,1227.837C1476.237,1213.627 1486.885,1202.09 1500,1202.09C1513.115,1202.09 1523.763,1213.627 1523.763,1227.837L1523.763,1342.315ZM1523.763,922.565C1523.763,936.776 1513.115,948.313 1500,948.313C1486.885,948.313 1476.237,936.776 1476.237,922.565L1476.237,808.087C1476.237,793.877 1486.885,782.34 1500,782.34C1513.115,782.34 1523.763,793.877 1523.763,808.087L1523.763,922.565Z" style="fill:rgb(209,213,219);"/>
        </g>
    </g>
    <g id="Bricks" transform="matrix(1,0,0,1,0,237.5)">
        <g id="Other-Bricks" serif:id="Other Bricks">
            <g transform="matrix(1,0,0,1,-4.525631,-528)">
                <path d="M984.123,1208.5L569.891,1504.6L569.891,1987.9L984.123,1790.5L984.123,1208.5Z" style="fill:rgb(209,213,219);stroke:black;stroke-width:66.67px;"/>
            </g>
            <g transform="matrix(1,0,0,1,-4.525631,-528)">
                <path d="M569.891,2469.117L100.051,2583.15L100.051,2954.5L569.891,2954.5L569.891,2469.117Z" style="fill:rgb(209,213,219);stroke:black;stroke-width:66.67px;"/>
            </g>
            <g transform="matrix(1,0,0,1,-4.525631,-528)">
                <path d="M2050.206,2954.5L2868.684,2954.5L2868.684,2578.738L2050.206,2489.167L2050.206,2954.5Z" style="fill:rgb(209,213,219);stroke:black;stroke-width:66.67px;"/>
            </g>
            <g transform="matrix(1,0,0,1,-4.525631,-528)">
                <path d="M984.123,1208.5L984.123,1790.5L2118.807,2038.85L2118.807,1581.024L984.123,1208.5Z" style="fill:rgb(209,213,219);stroke:black;stroke-width:66.67px;"/>
            </g>
            <g transform="matrix(1,0,0,1,-4.525631,-528)">
                <path d="M1455.176,1893.6L1455.176,2424.05L2431.435,2530.887L2431.435,2107.275L1455.176,1893.6Z" style="fill:rgb(209,213,219);stroke:black;stroke-width:66.67px;"/>
            </g>
            <g transform="matrix(1,0,0,1,-4.525631,-528)">
                <path d="M984.123,1790.5L1455.176,1893.6L1455.176,2424.05L984.123,2372.5L984.123,1790.5Z" style="fill:rgb(209,213,219);stroke:black;stroke-width:66.67px;"/>
            </g>
            <g transform="matrix(1,0,0,1,-4.525631,-528)">
                <path d="M201.242,2162.238L984.123,1790.5L984.123,2372.5C809.984,2410.32 584.504,2462.545 201.242,2559.039L201.242,2162.238Z" style="fill:rgb(209,213,219);stroke:black;stroke-width:66.67px;"/>
            </g>
        </g>
        <g id="Cornerstone" transform="matrix(1.052061,0,0,0.970971,-15.72937,94.99049)">
            <g transform="matrix(1,0,0,1,-4.301682,-543.785567)">
                <path d="M950.375,2345.6L1963.704,2465.755L1963.704,2945L950.375,2945L950.375,2345.6Z" style="fill:rgb(59,130,246);stroke:black;stroke-width:65.85px;stroke-miterlimit:1.5;"/>
            </g>
            <g transform="matrix(0.853678,0,0,1,134.758934,-543.785567)">
                <path d="M950.375,2345.6L489.648,2447.142L489.155,2945L950.375,2945L950.375,2345.6Z" style="fill:rgb(59,130,246);stroke:black;stroke-width:71.28px;stroke-miterlimit:1.5;"/>
            </g>
        </g>
    </g>
</svg>
